<?xml version="1.0" standalone="no"?>
<!DOCTYPE svg PUBLIC "-//W3C//DTD SVG 1.1//EN" "http://www.w3.org/Graphics/SVG/1.1/DTD/svg11.dtd">
<svg xmlns="http://www.w3.org/2000/svg" width="1024" height="1024" viewBox="0 0 1024 1024"><path fill="#D51B1A" d="m511 46 4 2 125 125 5 5 3 2v2l4 2 11 11 5 5 46 46 6 7 5 5 47 47 5 5 9 9 5 4 5 6 4 3v2l3 1 5 6 5 5 6 5 7 8 6 5v2h2l7 8 19 19 7 6 7 8 5 4v2l4 2 4 4v2l4 2 77 77v2l4 2 6 8-21 21-2 3h-2l-2 4-438 438-4-2L46 513l2-4ZM317 272l-5 6 4-2 2-4Z"/><path fill="#FDFDFD" d="m511 46 4 2 125 125 5 5 3 2v2l4 2 11 11 5 5 46 46 6 7 5 5 47 47 5 5 9 9 5 4 5 6 4 3v2l3 1 5 6 5 5 6 5 7 8 6 5v2h2l7 8 19 19 7 6 7 8 5 4v2l4 2 4 4v2l4 2 77 77v2l4 2 6 8-21 21-2 3h-2l-2 4-438 438-4-2L46 513l2-4Zm0 78-9 9v2h-2v2l-3 1v2l-4 2-5 5-7 8-8 7-24 24v2l-4 2-321 321 2 4 381 381 4 5 4-2 19-19 7-8 18-18 6-5 5-5 18-18 7-8 306-306-6-7-266-266-5-5-7-6-5-5-99-99ZM317 272l-5 6 4-2 2-4Z"/><path fill="#161312" d="m511 155 4 2 339 339v1h-73l-13-15-9-11-12-14-11-13-11-13-11-13-9-11-11-13-11-13-9-11-14-17-11-13-11-14-14-17-11-14-14-18-14-18-9-12-10-13-14-19-12-17-8-10 7 11 19 29 8 12 10 15 14 20 16 24 11 15 12 17 13 18 12 16 9 12 16 21 12 16 14 18 14 18 11 14 13 16 11 14 1 3h-74l-15-27-16-29-13-24-14-26-11-20-8-16-14-27-10-19-22-45-13-28-15-34-1-2 11 31 15 37 12 28 16 37 13 29 13 27 9 20 8 16 8 16 14 29 11 22 2 5h-61l-5-15-3-12-7-24-7-23-4-15-6-21-7-24-7-24-11-42-7-26-8-30-8-30 7 39 5 28 9 44 5 25 5 26 9 43 6 28 11 49 4 20 4 16 6 27 3 13h-34l-9-42-3-15h-71l-4 19-9 38h-34l1-8 7-31 8-34 8-36 6-28 8-38 12-58 7-35 5-23 5-25 7-41-3 9-6 25-6 24-7 26-10 34-7 25-11 37-7 25-7 25-7 23-5 17-4 13-1 2h-60l2-6 8-15 11-23 19-39 16-34 14-30 12-27 9-20 18-41 16-39 11-27-8 16-14 30-26 53-16 32-10 19-19 37-12 22-16 30-13 23-15 27-7 12h-72l2-4 11-14 13-17 14-18 14-19 10-13 16-21 13-18 14-19 13-18 13-18 13-18 12-17 11-16 11-16 16-24 11-17 13-20-1 1-10 13-13 18-12 16-9 12-10 13-10 13-10 13-13 16-10 13-9 11-14 17-11 13-11 14-12 14-8 10-11 13-11 14-12 14-9 11-11 13-9 11-11 13-9 11h-74v-2l5-5Z"/><path fill="#141413" d="m511 46 4 2 125 125 5 5 3 2v2l4 2 11 11 5 5 46 46 6 7 5 5 47 47 5 5 9 9 5 4 5 6 4 3v2l3 1 5 6 5 5 6 5 7 8 6 5v2h2l7 8 19 19 7 6 7 8 5 4v2l4 2 4 4v2l4 2 77 77v2l4 2 6 8-21 21-2 3h-2l-2 4-438 438-4-2L46 513l2-4Zm0 33L319 271l-7 6-7 8L79 511l6 7 426 426 4-2 430-430-6-7L513 79Z"/><path fill="#151312" d="M595 570h64l11 3 7 4 5 4 7 12 2 8v17l-4 13-6 9-9 7-12 4h-37v39h-28Z"/><path fill="#161312" d="M370 567h19l14 3 12 6 5 5 6 8 3 10v6l-11 1h-15l-2-7-5-6-7-3h-18l-6 4-2 2v7l5 5 8 4 19 5 14 4 12 6 7 7 4 8 1 4v15l-4 11-7 9-9 6-8 3-8 2h-22l-16-3-12-6-9-9-5-10-1-6v-9h14l13 2 3 8 4 5 10 4h18l8-4 3-4v-7l-2-4-10-5-15-4-21-6-11-6-8-9-3-6-1-4v-14l4-10 8-9 11-6Z"/><path fill="#161211" d="M456 700h29l8 25 13 42 5 17 1 1 12-38 14-45 1-2h29l-12 36-12 35-11 33-6 18h-31l-12-36-12-36-12-36-4-12Z"/><path fill="#D41C1A" d="M512 215h1l4 84 4 74 4 84 1 28h-29l1-26 4-61 6-101 2-34Z"/><path fill="#D41B1A" d="M623 592h24l9 3 5 6 1 3v13l-4 6-5 4-8 2h-22Z"/></svg>